<svg width="325" height="237" viewBox="0 0 325 237" fill="none" xmlns="http://www.w3.org/2000/svg">
<path d="M159.007 119.961C159.007 84.1678 159.007 48.3772 159.007 12.5889C159.007 4.10268 159.731 3.32477 167.841 3.30356C179.368 3.30356 190.894 3.30356 202.421 3.30356C212.574 3.30356 222.597 2.87217 232.751 1.13957C275.263 -6.10908 314.126 21.9096 323.262 65.6419C332.274 108.745 305.319 152.803 263.866 162.526C251.658 165.513 238.941 165.472 226.752 162.406C222.174 161.239 221.094 162.597 221.135 167.187C221.306 187.469 221.224 207.751 221.197 228.005C221.197 235.869 220.206 236.922 212.519 236.95C197.533 237.016 182.55 237.016 167.568 236.95C159.977 236.95 159.007 235.84 159.007 227.877C158.998 191.924 158.998 155.952 159.007 119.961ZM190.922 90.1954C194.577 90.3651 197.864 87.2606 197.686 83.8873C197.488 80.2312 195.438 77.9965 191.919 77.5863C188.681 77.2044 185.456 80.415 185.606 83.8661C185.763 87.5505 187.861 89.6014 190.922 90.1954ZM271.949 30.7918C272.052 27.0508 269.489 24.0241 266.428 23.7695C265.611 23.7257 264.794 23.8527 264.025 24.143C263.256 24.4332 262.551 24.8807 261.953 25.4589C261.355 26.037 260.876 26.7339 260.543 27.508C260.211 28.2821 260.033 29.1175 260.019 29.9645C259.931 33.5711 262.752 36.7181 266.094 36.4776C269.681 36.2018 271.532 33.9035 271.949 30.7777V30.7918ZM267.255 124.883C267.255 128.185 269.141 130.378 272.66 130.844C275.994 131.283 278.952 128.334 278.939 124.713C278.925 121.092 276.95 118.766 273.473 118.228C270.255 117.712 267.385 120.725 267.255 124.869V124.883ZM287.015 50.2111C286.83 47.0005 285.375 44.8507 282.164 44.7658C278.952 44.681 277.032 46.6045 276.944 49.8081C276.855 53.0116 278.768 55.1473 281.822 55.2746C284.876 55.4019 286.721 53.4713 287.015 50.197V50.2111ZM205.024 59.1288C204.532 56.0313 202.974 53.9168 199.749 54.1785C196.716 54.4331 194.782 56.4627 194.967 59.6874C195.151 62.9122 197.221 64.7721 200.275 64.6731C203.487 64.567 204.874 62.297 205.051 59.1146L205.024 59.1288ZM267.59 42.6372C264.502 43.0262 262.711 44.8295 262.807 48.0755C262.903 51.3214 264.952 53.2025 267.993 53.0823C271.033 52.9621 272.906 50.8264 272.824 47.6441C272.742 44.4617 270.774 42.7504 267.617 42.6231L267.59 42.6372ZM205.496 78.6117C208.721 78.3359 210.504 76.377 210.442 73.2442C210.381 70.1114 208.393 68.0605 205.311 68.0817C202.23 68.103 200.426 70.2033 200.467 73.421C200.508 76.6387 202.435 78.3501 205.523 78.5976L205.496 78.6117ZM262.705 117.068C262.021 114.318 260.525 112.076 257.327 112.344C254.239 112.606 252.497 114.784 252.722 118.002C252.927 120.944 254.813 122.676 257.69 122.62C260.832 122.542 262.404 120.541 262.705 117.068ZM253.672 129.183C253.392 125.986 251.834 123.942 248.623 124.034C245.78 124.119 243.915 125.901 243.84 128.871C243.792 132.025 245.541 134.225 248.623 134.373C251.704 134.522 253.385 132.4 253.638 129.183H253.672ZM237.506 124.819C240.102 124.352 241.79 122.846 241.674 120.088C241.558 117.33 239.918 115.654 237.24 115.753C234.561 115.852 233.003 117.641 233.085 120.378C233.167 123.115 234.869 124.543 237.472 124.819H237.506ZM266.073 67.6362C268.676 67.3463 270.412 65.8753 270.473 63.188C270.542 60.2178 268.82 58.3226 265.889 58.4428C263.285 58.5559 261.728 60.331 261.789 63.0819C261.851 65.8329 263.443 67.2755 266.039 67.6362H266.073ZM213.51 48.9241C210.832 49.108 209.212 50.685 209.042 53.3369C208.871 55.9889 210.449 57.877 213.107 57.9973C215.765 58.1175 217.446 56.4273 217.596 53.7188C217.746 51.0103 216.052 49.4403 213.51 48.9241ZM296.082 69.6941C295.713 67.0422 294.435 65.3025 291.681 65.3732C288.928 65.4439 287.363 67.0492 287.411 69.779C287.459 72.5087 289.085 74.1989 291.75 74.1635C294.415 74.1282 295.815 72.4521 296.082 69.6941ZM223.151 67.5018C222.802 64.8216 221.443 63.089 218.73 63.1597C216.018 63.2304 214.501 64.9348 214.515 67.6645C214.528 70.3942 216.141 72.141 218.799 72.0632C221.456 71.9854 222.796 70.1467 223.151 67.5018ZM284.576 65.3803C284.384 62.6364 283.1 60.8614 280.36 60.727C279.83 60.658 279.292 60.7038 278.78 60.8615C278.268 61.0192 277.793 61.2854 277.385 61.6432C276.978 62.0009 276.647 62.4425 276.413 62.9397C276.18 63.437 276.049 63.9791 276.028 64.5316C275.734 67.2897 277.217 69.2132 279.861 69.4819C282.505 69.7507 284.132 68.1595 284.569 65.3803H284.576ZM232.054 127.853C231.569 125.3 230.12 123.709 227.373 123.956C224.941 124.183 223.581 125.746 223.636 128.284C223.698 131.113 225.283 132.754 227.941 132.711C230.598 132.669 231.849 130.668 232.054 127.846V127.853ZM245.978 103.809C243.457 104.332 241.879 105.852 242.07 108.632C242.262 111.411 243.895 113.038 246.566 112.74C249.238 112.443 250.42 110.449 250.16 107.727C249.921 105.195 248.472 103.872 245.978 103.773V103.809ZM215.471 40.7844C215.259 38.479 214.105 36.8595 211.597 36.7676C209.09 36.6756 207.58 37.9839 207.45 40.5722C207.299 43.401 208.748 45.0841 211.508 45.0699C213.982 45.0133 215.252 43.4575 215.471 40.749V40.7844ZM229.136 51.5619C229.013 49.2847 227.968 47.7643 225.686 47.6794C223.404 47.5946 221.996 48.9241 221.88 51.2154C221.764 53.5066 223.124 54.9917 225.296 55.1473C227.469 55.3029 228.719 53.74 229.123 51.5265L229.136 51.5619ZM279.847 77.261C279.581 74.9556 278.399 73.5271 276.178 73.4988C273.958 73.4705 272.612 74.9485 272.584 77.1903C272.557 79.4321 273.917 80.8747 276.165 80.8676C278.413 80.8606 279.581 79.4603 279.834 77.2256L279.847 77.261ZM287.944 85.5492C289.837 85.0825 291.285 83.8237 291.155 81.5183C291.026 79.2128 289.598 77.8055 287.363 77.9328C286.879 77.9294 286.4 78.0325 285.957 78.2353C285.515 78.4381 285.119 78.7359 284.796 79.109C284.473 79.4821 284.23 79.922 284.084 80.3995C283.938 80.8771 283.891 81.3813 283.947 81.8789C284.029 84.1136 285.457 85.3441 287.93 85.5139L287.944 85.5492ZM223.465 42.5099C225.706 42.2978 226.991 40.9753 226.97 38.6557C226.95 36.3362 225.604 34.8794 223.335 34.9713C221.361 35.042 220.172 36.3857 220.097 38.4577C220.001 40.7561 221.128 42.1492 223.452 42.4745L223.465 42.5099ZM241.913 98.8514C241.831 96.5247 240.806 94.9406 238.599 94.7709C236.392 94.6012 234.958 95.9165 234.841 98.222C234.725 100.527 235.894 102.02 238.121 102.21C240.348 102.401 241.524 100.994 241.872 98.816L241.913 98.8514ZM265.608 74.7293C265.164 72.834 264.016 71.4055 261.755 71.5257C259.493 71.6459 258.257 73.0532 258.386 75.3657C258.516 77.6782 259.965 78.9582 262.151 78.9017C264.338 78.8451 265.438 77.2398 265.567 74.6939L265.608 74.7293ZM232.846 110.308C232.648 107.995 231.514 106.531 229.218 106.68C228.784 106.684 228.356 106.778 227.957 106.957C227.559 107.135 227.199 107.394 226.899 107.718C226.599 108.042 226.364 108.425 226.208 108.844C226.053 109.263 225.98 109.71 225.993 110.159C225.884 112.479 227.052 113.999 229.314 114.07C231.575 114.141 232.675 112.578 232.846 110.308ZM234.452 65.2742C234.165 62.9051 232.901 61.6676 230.619 61.7383C228.637 61.8302 227.346 63.0041 227.25 65.055C227.148 67.4028 228.453 68.8031 230.721 68.8455C232.99 68.8879 234.172 67.5018 234.452 65.2742ZM220.104 114.678C217.794 114.841 216.626 116.184 216.598 118.483C216.564 120.498 217.555 122.019 219.543 122.181C221.723 122.33 223.185 121 223.397 118.709C223.609 116.418 222.201 115.124 220.069 114.678H220.104ZM237.069 39.3841C236.823 37.4394 235.825 36.0675 233.796 36.1452C233.411 36.1412 233.029 36.2178 232.674 36.3704C232.318 36.5229 231.996 36.7484 231.727 37.0331C231.457 37.3178 231.246 37.6559 231.106 38.0271C230.967 38.3983 230.901 38.795 230.913 39.1932C230.858 41.3148 232.102 42.5028 234.117 42.4533C235.825 42.4109 236.782 41.237 237.035 39.3841H237.069ZM215.28 111.814C217.111 111.694 218.17 110.612 218.272 108.816C218.375 107.019 217.391 105.683 215.594 105.591C213.544 105.485 212.287 106.729 212.308 108.858C212.321 110.711 213.51 111.673 215.28 111.814ZM236.187 55.1473C236.931 55.0638 237.616 54.6921 238.105 54.107C238.595 53.5218 238.852 52.7666 238.825 51.9933C238.825 50.1546 237.923 48.917 236.092 48.8675C234.042 48.818 232.874 50.0768 232.969 52.2125C233.044 54.0653 234.254 54.9634 236.187 55.1473ZM224.654 103.568C226.321 103.568 227.544 102.727 227.722 100.888C227.9 99.0494 226.847 97.9108 225.126 97.6987C223.13 97.4724 221.709 98.5048 221.709 100.626C221.648 102.416 222.816 103.427 224.654 103.568ZM259.193 84.3328C259.042 82.48 258.113 81.2354 256.384 81.2354C254.335 81.2354 253.378 82.7205 253.549 84.7713C253.699 86.5534 254.792 87.6708 256.555 87.501C258.318 87.3313 259.138 86.0796 259.193 84.3399V84.3328ZM273.5 86.3059C273.288 84.4601 272.366 83.3499 270.521 83.3782C268.676 83.4064 267.604 84.446 267.542 86.2988C267.467 88.4628 268.649 89.665 270.747 89.5094C272.55 89.3821 273.391 88.1163 273.5 86.313V86.3059ZM244.175 65.4086C244.128 65.0363 244.01 64.6773 243.827 64.3527C243.645 64.0281 243.402 63.7443 243.113 63.5179C242.823 63.2915 242.493 63.1269 242.142 63.0338C241.791 62.9408 241.425 62.9211 241.066 62.9759C239.221 63.089 238.23 64.2134 238.333 66.0733C238.435 67.9332 239.57 68.9657 241.387 68.8455C243.204 68.7253 244.093 67.5938 244.175 65.4156V65.4086ZM236.495 88.4345C236.187 86.6312 235.128 85.6553 233.359 85.8391C231.589 86.023 230.585 87.1192 230.742 88.9861C230.899 90.8531 232.108 91.6946 233.871 91.5886C235.634 91.4825 236.481 90.2732 236.495 88.4345ZM282.225 88.1729C280.394 88.1729 279.233 89.0427 279.151 90.9097C279.069 92.7766 280.155 93.8516 281.918 93.9011C282.251 93.9373 282.588 93.9016 282.908 93.7963C283.227 93.6909 283.522 93.5181 283.774 93.2889C284.025 93.0596 284.228 92.7788 284.37 92.4643C284.512 92.1497 284.589 91.8082 284.596 91.4613C284.787 89.6226 283.995 88.477 282.225 88.1729ZM242.596 44.582C244.065 44.3062 245.063 43.4434 245.008 41.8593C244.998 41.5194 244.923 41.1849 244.788 40.875C244.653 40.5651 244.46 40.2857 244.22 40.0529C243.981 39.8201 243.699 39.6384 243.392 39.5182C243.085 39.398 242.757 39.3416 242.429 39.3523C242.101 39.363 241.777 39.4405 241.478 39.5805C241.179 39.7204 240.909 39.92 240.684 40.1679C240.459 40.4158 240.283 40.7072 240.167 41.0253C240.051 41.3434 239.997 41.6821 240.007 42.022C240.061 43.5919 241.093 44.4052 242.596 44.582ZM249.723 93.4697C251.294 93.4343 252.21 92.5999 252.292 91.0016C252.374 89.4034 251.609 88.3567 250.023 88.2648C248.438 88.1729 247.468 89.0286 247.4 90.6409C247.331 92.2533 248.247 93.1232 249.723 93.4697ZM275.645 99.9546C277.196 99.8839 278.174 99.0635 278.174 97.4441C278.197 97.0987 278.149 96.7521 278.035 96.4267C277.921 96.1012 277.743 95.8041 277.511 95.5544C277.279 95.3046 277 95.1078 276.69 94.9765C276.381 94.8452 276.048 94.7824 275.714 94.7921C274.156 94.7214 273.254 95.7397 273.234 97.3309C273.213 98.9221 274.04 99.8414 275.618 99.9546H275.645ZM225.221 91.5461C224.921 89.9196 224.094 88.9508 222.488 89.0922C220.883 89.2336 220.104 90.2732 220.206 91.9209C220.197 92.2714 220.263 92.6196 220.4 92.9404C220.537 93.2612 220.741 93.5465 220.997 93.7759C221.253 94.0052 221.555 94.1728 221.882 94.2666C222.208 94.3604 222.551 94.3781 222.884 94.3183C224.442 94.1557 225.167 93.0454 225.221 91.5461ZM215.396 99.0847C215.006 98.0522 214.371 96.85 212.663 97.1965C212.326 97.2303 212 97.3407 211.708 97.5199C211.417 97.699 211.168 97.9425 210.978 98.233C210.788 98.5234 210.662 98.8537 210.61 99.2002C210.557 99.5466 210.58 99.9008 210.675 100.237C210.705 100.535 210.792 100.823 210.931 101.086C211.07 101.348 211.257 101.58 211.483 101.767C211.708 101.955 211.967 102.094 212.245 102.177C212.522 102.261 212.813 102.286 213.1 102.253C214.767 102.154 215.41 101.058 215.396 99.0494V99.0847ZM266.722 92.7201C266.687 92.373 266.58 92.0377 266.41 91.7368C266.239 91.4359 266.008 91.1762 265.732 90.9753C265.457 90.7743 265.143 90.6368 264.811 90.5718C264.48 90.5068 264.139 90.5159 263.811 90.5985C263.521 90.6116 263.236 90.6857 262.973 90.8161C262.711 90.9466 262.477 91.1307 262.285 91.3575C262.094 91.5842 261.948 91.8488 261.858 92.1353C261.768 92.4218 261.736 92.7241 261.762 93.0242C261.733 93.3762 261.782 93.7304 261.905 94.0602C262.027 94.3899 262.22 94.6867 262.469 94.9282C262.718 95.1698 263.017 95.3498 263.343 95.4548C263.669 95.5598 264.014 95.5871 264.351 95.5347C265.923 95.3862 266.708 94.3183 266.722 92.6706V92.7201ZM231.015 82.3527C232.655 82.3527 233.694 81.6455 233.796 79.9695C233.842 79.6726 233.829 79.3691 233.759 79.0775C233.688 78.7858 233.56 78.5122 233.384 78.2733C233.207 78.0344 232.985 77.8352 232.732 77.6879C232.479 77.5406 232.199 77.4483 231.91 77.4166C230.38 77.1549 229.177 77.7419 228.931 79.4179C228.685 81.0939 229.519 82.0274 231.015 82.3527ZM252.237 68.6546C252.203 66.9785 251.424 65.9248 249.853 65.946C249.273 65.9334 248.712 66.1505 248.282 66.5528C247.853 66.9552 247.588 67.5123 247.543 68.11C247.338 69.7082 248.042 70.8468 249.593 71.0236C251.144 71.2004 252.005 70.1467 252.237 68.6475V68.6546ZM246.484 54.6876C246.484 53.3723 245.862 52.4812 244.489 52.4105C244.211 52.3905 243.932 52.4274 243.669 52.5189C243.405 52.6105 243.161 52.7549 242.951 52.9441C242.741 53.1332 242.569 53.3633 242.445 53.6212C242.321 53.8791 242.247 54.1598 242.227 54.4472C242.208 54.7346 242.244 55.0232 242.332 55.2964C242.421 55.5696 242.56 55.822 242.743 56.0394C242.926 56.2568 243.148 56.4348 243.397 56.5632C243.646 56.6916 243.917 56.768 244.195 56.788C245.541 56.8941 246.306 56.1303 246.484 54.6806V54.6876ZM251.089 45.9963C251.13 44.5042 250.515 43.5848 249.197 43.4858C248.651 43.4701 248.121 43.6712 247.715 44.0479C247.308 44.4246 247.057 44.9481 247.012 45.5108C246.968 46.0735 247.133 46.6324 247.475 47.0727C247.816 47.5129 248.308 47.8009 248.848 47.8774C249.118 47.9261 249.394 47.9145 249.658 47.8433C249.923 47.7721 250.17 47.6431 250.382 47.4648C250.595 47.2865 250.768 47.0632 250.89 46.8099C251.012 46.5566 251.08 46.2792 251.089 45.9963ZM222.304 86.0089C223.534 86.0089 224.388 85.3936 224.504 84.0146C224.531 83.736 224.504 83.4546 224.426 83.1866C224.348 82.9185 224.22 82.669 224.048 82.4523C223.877 82.2356 223.666 82.0559 223.428 81.9236C223.189 81.7912 222.928 81.7088 222.659 81.6809C222.39 81.653 222.118 81.6803 221.859 81.7612C221.6 81.8421 221.359 81.975 221.15 82.1523C220.94 82.3296 220.767 82.5478 220.639 82.7946C220.511 83.0413 220.431 83.3117 220.404 83.5903C220.247 84.941 220.971 85.7189 222.283 86.0089H222.304ZM260.026 96.751C259.901 96.2117 259.599 95.7342 259.172 95.4C258.744 95.0659 258.218 94.896 257.683 94.9194C257.396 94.903 257.11 94.9532 256.845 95.0663C256.58 95.1794 256.343 95.3525 256.151 95.573C255.959 95.7934 255.817 96.0556 255.735 96.3402C255.654 96.6248 255.635 96.9247 255.681 97.2178C255.679 97.5158 255.738 97.8109 255.854 98.0837C255.97 98.3565 256.141 98.6009 256.354 98.8011C256.567 99.0013 256.819 99.1526 257.093 99.2454C257.366 99.3381 257.656 99.3701 257.942 99.3393C259.288 99.3252 259.869 98.321 260.006 96.751H260.026ZM213.046 89.6792C212.801 89.6707 212.557 89.7126 212.327 89.8025C212.098 89.8923 211.889 90.0283 211.711 90.2026C211.533 90.377 211.39 90.5861 211.291 90.8179C211.192 91.0498 211.138 91.2997 211.132 91.5532C211.08 91.848 211.096 92.1515 211.179 92.4387C211.262 92.7259 211.409 92.9886 211.609 93.2054C211.809 93.4221 212.056 93.5866 212.33 93.6854C212.603 93.7842 212.895 93.8145 213.182 93.7738C213.421 93.7903 213.66 93.7558 213.885 93.6726C214.11 93.5894 214.316 93.4592 214.49 93.2901C214.664 93.1209 214.803 92.9165 214.898 92.6895C214.993 92.4625 215.041 92.2177 215.041 91.9705C215.075 90.5914 214.248 89.863 213.025 89.7004L213.046 89.6792ZM251.308 60.2815C252.579 59.9279 253.269 59.0863 252.927 57.7215C252.836 57.2333 252.562 56.802 252.166 56.5213C251.769 56.2406 251.282 56.1331 250.809 56.2222C249.477 56.4485 248.944 57.4527 249.21 58.7893C249.422 59.9137 250.222 60.3522 251.294 60.3027L251.308 60.2815ZM264.686 103.455C264.426 102.416 263.832 101.687 262.725 101.892C262.49 101.915 262.263 101.992 262.06 102.117C261.857 102.242 261.684 102.412 261.553 102.616C261.422 102.819 261.337 103.05 261.303 103.292C261.269 103.534 261.288 103.781 261.359 104.014C261.411 104.406 261.607 104.763 261.905 105.012C262.204 105.26 262.582 105.381 262.964 105.35C263.198 105.354 263.431 105.307 263.646 105.213C263.862 105.118 264.056 104.979 264.217 104.802C264.377 104.626 264.501 104.417 264.579 104.189C264.658 103.961 264.689 103.718 264.672 103.476L264.686 103.455ZM269.346 103.363C269.58 103.372 269.813 103.328 270.028 103.233C270.244 103.138 270.436 102.994 270.591 102.813C270.747 102.632 270.862 102.417 270.928 102.185C270.993 101.952 271.008 101.707 270.972 101.468C270.982 101.225 270.942 100.983 270.853 100.758C270.764 100.533 270.63 100.331 270.458 100.165C270.287 99.999 270.083 99.8735 269.86 99.7968C269.638 99.7202 269.401 99.6944 269.168 99.7212C268.933 99.7126 268.7 99.7582 268.484 99.8546C268.268 99.951 268.076 100.096 267.921 100.279C267.766 100.461 267.652 100.677 267.588 100.911C267.524 101.145 267.51 101.391 267.549 101.631C267.536 101.873 267.573 102.114 267.66 102.34C267.746 102.565 267.878 102.768 268.048 102.935C268.218 103.102 268.421 103.229 268.642 103.306C268.864 103.384 269.099 103.41 269.332 103.384L269.346 103.363ZM214.378 83.6964C213.996 83.6668 213.619 83.7932 213.326 84.0483C213.034 84.3035 212.85 84.6671 212.813 85.0612C212.777 85.2524 212.78 85.4493 212.82 85.6395C212.861 85.8297 212.94 86.0091 213.051 86.1664C213.162 86.3238 213.303 86.4557 213.465 86.554C213.628 86.6522 213.808 86.7146 213.995 86.7373C214.223 86.8064 214.464 86.8168 214.696 86.7675C214.929 86.7182 215.146 86.6107 215.33 86.4545C215.513 86.2983 215.657 86.098 215.748 85.8712C215.839 85.6444 215.876 85.3979 215.854 85.1532C215.833 84.3116 215.205 83.8237 214.364 83.7176L214.378 83.6964ZM254.273 51.767C254.463 51.7401 254.646 51.6746 254.811 51.5741C254.976 51.4737 255.12 51.3404 255.235 51.1819C255.35 51.0234 255.434 50.8429 255.481 50.6507C255.528 50.4586 255.538 50.2587 255.51 50.0626C255.373 48.8887 254.642 48.3301 253.522 48.7049C253.342 48.7664 253.175 48.8641 253.032 48.9924C252.888 49.1207 252.77 49.277 252.685 49.4524C252.6 49.6278 252.55 49.8188 252.536 50.0145C252.522 50.2103 252.546 50.4068 252.606 50.593C252.631 50.7877 252.695 50.9749 252.793 51.1427C252.892 51.3105 253.023 51.4552 253.178 51.5676C253.334 51.68 253.51 51.7577 253.697 51.7957C253.883 51.8337 254.074 51.8311 254.26 51.7882L254.273 51.767Z" fill="#1B8674"/>
<path d="M142.981 82.1724C142.981 104.517 142.981 126.861 142.981 149.206C142.981 160.82 142.694 161.083 131.817 161.146C116.092 161.231 100.442 161.551 84.7107 163.912C66.2102 166.698 47.7917 164.344 31.0415 154.403C11.1258 142.555 1.17134 123.914 0.480816 100.735C-0.421646 70.6433 0.21418 40.4662 0.262038 10.367C0.262038 4.3401 1.53369 3.12762 7.56378 3.09217C22.1809 3.02126 36.8004 3.02126 51.4221 3.09217C58.5051 3.09217 59.8314 4.45355 59.8519 11.8915C59.9066 39.4239 59.8519 66.9562 59.893 94.4886C59.803 96.8794 59.9197 99.2737 60.2416 101.643C60.6089 104.034 61.7788 106.215 63.5451 107.799C65.3114 109.383 67.5604 110.269 69.8952 110.3C72.2271 110.222 74.4623 109.315 76.226 107.731C77.9898 106.147 79.175 103.983 79.5831 101.6C79.8652 99.4272 79.9658 97.2328 79.8839 95.0417C79.8839 67.5117 79.8839 39.9816 79.8839 12.4516C79.8839 3.98558 80.718 3.11344 88.7718 3.08508C103.772 3.02836 118.776 3 133.786 3C141.949 3 142.961 4.03521 142.974 12.7565C143.006 35.8904 143.008 59.0291 142.981 82.1724Z" fill="#1B8674"/>
</svg>
